<?xml version="1.0" encoding="UTF-8" standalone="no"?>
<svg
   xmlns:dc="http://purl.org/dc/elements/1.1/"
   xmlns:cc="http://creativecommons.org/ns#"
   xmlns:rdf="http://www.w3.org/1999/02/22-rdf-syntax-ns#"
   xmlns:svg="http://www.w3.org/2000/svg"
   xmlns="http://www.w3.org/2000/svg"
   xmlns:sodipodi="http://sodipodi.sourceforge.net/DTD/sodipodi-0.dtd"
   xmlns:inkscape="http://www.inkscape.org/namespaces/inkscape"
   width="67.758675mm"
   height="68.407585mm"
   viewBox="0 0 67.758675 68.407585"
   version="1.1"
   id="svg8"
   inkscape:version="1.0.1 (3bc2e813f5, 2020-09-07)"
   sodipodi:docname="favicon.svg"
   inkscape:export-filename="C:\Users\Marx\Documents\BTG\big-o\favicon.png"
   inkscape:export-xdpi="450.00003"
   inkscape:export-ydpi="450.00003">
  <defs
     id="defs2" />
  <sodipodi:namedview
     id="base"
     pagecolor="#ffffff"
     bordercolor="#666666"
     borderopacity="1.0"
     inkscape:pageopacity="0.0"
     inkscape:pageshadow="2"
     inkscape:zoom="1.6008092"
     inkscape:cx="106.31613"
     inkscape:cy="98.458608"
     inkscape:document-units="mm"
     inkscape:current-layer="layer1"
     inkscape:document-rotation="0"
     showgrid="false"
     fit-margin-top="0"
     fit-margin-left="0"
     fit-margin-right="0"
     fit-margin-bottom="0"
     inkscape:window-width="1920"
     inkscape:window-height="1017"
     inkscape:window-x="-8"
     inkscape:window-y="-8"
     inkscape:window-maximized="1"
     showguides="true" />
  <metadata
     id="metadata5">
    <rdf:RDF>
      <cc:Work
         rdf:about="">
        <dc:format>image/svg+xml</dc:format>
        <dc:type
           rdf:resource="http://purl.org/dc/dcmitype/StillImage" />
        <dc:title></dc:title>
      </cc:Work>
    </rdf:RDF>
  </metadata>
  <g
     inkscape:label="Layer 1"
     inkscape:groupmode="layer"
     id="layer1"
     transform="translate(-92.292304,-93.04813)">
    <path
       style="fill:#ffffff;stroke-width:0.89796"
       d="M 13.66792,76.935331 C 13.930546,32.9514 13.943224,32.686391 15.998389,28.221018 18.720202,22.307181 22.562524,18.462781 28.193146,16.019669 32.071031,14.337064 34.928753,13.9582 46.483022,13.594877 L 60.176907,13.164273 V 36.63143 60.098587 h -8.409519 c -7.147998,0 -8.764446,0.279184 -10.775516,1.861093 -3.160303,2.485894 -3.303022,7.72108 -0.287714,10.553815 2.068347,1.943111 2.265852,1.952447 41.306146,1.952447 H 121.23817 V 97.812894 121.15985 H 67.321012 13.403858 Z"
       id="path101"
       transform="matrix(0.26458333,0,0,0.26458333,92.966434,93.72226)" />
    <path
       style="fill:#ffffff;stroke-width:0.89796"
       d="M 13.483003,158.42517 V 135.5272 h 23.346952 23.346952 v 22.89797 22.89798 H 36.829955 13.483003 Z"
       id="path103"
       transform="matrix(0.26458333,0,0,0.26458333,92.966434,93.72226)" />
    <path
       style="fill:#ffffff;stroke-width:0.89796"
       d="m 135.42851,214.05924 -0.27197,-28.40404 -2.51946,-2.16603 -2.51946,-2.16602 H 102.33094 74.544262 V 158.42517 135.5272 h 53.428598 53.42861 v 22.89797 22.89798 H 168.8801 c -11.7211,0 -12.66488,0.12912 -14.76701,2.0204 -3.2348,2.91035 -3.47957,7.61984 -0.54837,10.55103 1.74665,1.74665 2.99319,1.79592 45.44105,1.79592 h 43.64513 l -0.36767,14.14287 c -0.26874,10.33784 -0.75375,15.02213 -1.80275,17.41104 -2.09235,4.76499 -7.39712,10.24362 -12.2177,12.61814 -4.19846,2.06806 -4.31075,2.07348 -48.38526,2.3368 l -44.17703,0.26394 z"
       id="path105"
       transform="matrix(0.26458333,0,0,0.26458333,92.966434,93.72226)" />
    <path
       style="fill:#ffffff;stroke-width:0.89796"
       d="M 195.76882,158.42517 V 135.5272 h 23.34695 23.34695 v 22.89797 22.89798 h -23.34695 -23.34695 z"
       id="path107"
       transform="matrix(0.26458333,0,0,0.26458333,92.966434,93.72226)" />
    <rect
       style="fill:#f2f2f2;fill-opacity:1;stroke-width:0.971354"
       id="rect968"
       width="64.500557"
       height="63.31358"
       x="94.49987"
       y="96.218452"
       rx="6.6145835"
       ry="6.6145835" />
    <rect
       style="fill:#ff4757;fill-opacity:1;stroke-width:0.971354"
       id="rect976"
       width="64.500557"
       height="63.31358"
       x="94.49987"
       y="96.218452"
       rx="6.6145835"
       ry="6.6145835" />
    <g
       id="g65"
       transform="matrix(0.23242859,0,0,0.23242859,92.953762,94.033926)"
       style="fill:#333333;stroke:#ffffff;stroke-width:5.69171;stroke-miterlimit:4;stroke-dasharray:none"
       inkscape:export-xdpi="450.00003"
       inkscape:export-ydpi="450.00003">
      <path
         d="M 244.212,0 H 210.625 142.917 75.208 59.583 41.622 37.917 C 36.994,0 36.114,0.175 35.297,0.48 15.337,3.535 0,20.821 0,41.621 v 101.296 67.708 33.588 c 0,22.95 18.671,41.621 41.621,41.621 h 202.591 c 22.95,0 41.621,-18.671 41.621,-41.621 V 210.625 142.917 75.209 41.621 C 285.833,18.671 267.163,0 244.212,0 Z m 26.621,203.125 h -52.708 v -52.708 h 52.708 z M 150.417,82.709 h 60.208 60.208 v 52.708 H 210.625 150.417 Z M 270.833,41.621 V 67.709 H 218.125 V 15 h 26.087 c 14.68,0 26.621,11.942 26.621,26.621 z M 203.125,15 V 67.709 H 142.917 82.708 V 15 h 60.208 z M 41.622,15 h 17.962 8.125 v 52.709 h -16.98 c -4.142,0 -7.5,3.357 -7.5,7.5 0,4.143 3.358,7.5 7.5,7.5 h 24.479 60.208 v 52.708 H 75.208 37.917 15 V 41.621 C 15,26.942 26.942,15 41.622,15 Z M 67.708,203.125 H 26.25 15 v -52.708 h 22.917 29.792 v 52.708 z M 15,244.213 v -26.088 h 11.25 48.958 60.208 v 52.709 H 41.622 C 26.942,270.834 15,258.892 15,244.213 Z m 229.212,26.621 h -93.795 v -60.209 c 0,-4.143 -3.358,-7.5 -7.5,-7.5 H 82.708 v -52.708 h 60.208 60.208 v 52.708 h -26.206 c -4.142,0 -7.5,3.357 -7.5,7.5 0,4.143 3.358,7.5 7.5,7.5 h 93.914 v 26.088 c 0.001,14.679 -11.94,26.621 -26.62,26.621 z"
         id="path10"
         style="fill:#333333;stroke:#ffffff;stroke-width:5.69171;stroke-miterlimit:4;stroke-dasharray:none" />
      <g
         id="g12"
         style="fill:#333333;stroke:#ffffff;stroke-width:5.69171;stroke-miterlimit:4;stroke-dasharray:none">
</g>
      <g
         id="g14"
         style="fill:#333333;stroke:#ffffff;stroke-width:5.69171;stroke-miterlimit:4;stroke-dasharray:none">
</g>
      <g
         id="g16"
         style="fill:#333333;stroke:#ffffff;stroke-width:5.69171;stroke-miterlimit:4;stroke-dasharray:none">
</g>
      <g
         id="g18"
         style="fill:#333333;stroke:#ffffff;stroke-width:5.69171;stroke-miterlimit:4;stroke-dasharray:none">
</g>
      <g
         id="g20"
         style="fill:#333333;stroke:#ffffff;stroke-width:5.69171;stroke-miterlimit:4;stroke-dasharray:none">
</g>
      <g
         id="g22"
         style="fill:#333333;stroke:#ffffff;stroke-width:5.69171;stroke-miterlimit:4;stroke-dasharray:none">
</g>
      <g
         id="g24"
         style="fill:#333333;stroke:#ffffff;stroke-width:5.69171;stroke-miterlimit:4;stroke-dasharray:none">
</g>
      <g
         id="g26"
         style="fill:#333333;stroke:#ffffff;stroke-width:5.69171;stroke-miterlimit:4;stroke-dasharray:none">
</g>
      <g
         id="g28"
         style="fill:#333333;stroke:#ffffff;stroke-width:5.69171;stroke-miterlimit:4;stroke-dasharray:none">
</g>
      <g
         id="g30"
         style="fill:#333333;stroke:#ffffff;stroke-width:5.69171;stroke-miterlimit:4;stroke-dasharray:none">
</g>
      <g
         id="g32"
         style="fill:#333333;stroke:#ffffff;stroke-width:5.69171;stroke-miterlimit:4;stroke-dasharray:none">
</g>
      <g
         id="g34"
         style="fill:#333333;stroke:#ffffff;stroke-width:5.69171;stroke-miterlimit:4;stroke-dasharray:none">
</g>
      <g
         id="g36"
         style="fill:#333333;stroke:#ffffff;stroke-width:5.69171;stroke-miterlimit:4;stroke-dasharray:none">
</g>
      <g
         id="g38"
         style="fill:#333333;stroke:#ffffff;stroke-width:5.69171;stroke-miterlimit:4;stroke-dasharray:none">
</g>
      <g
         id="g40"
         style="fill:#333333;stroke:#ffffff;stroke-width:5.69171;stroke-miterlimit:4;stroke-dasharray:none">
</g>
    </g>
    <rect
       style="fill:#3742fa;fill-opacity:1;stroke-width:0.310806"
       id="rect143"
       width="1.8520833"
       height="67.73333"
       x="129.40331"
       y="93.385254" />
  </g>
</svg>
